PathFileType  4	(X/Y/Z) C:\Users\antoi\Documents\MyRepositories\mobilecap\ResultsAnalysis
DataRate	CameraRate	NumFrames	NumMarkers	Units	OrigDataRate	OrigDataStartFrame	OrigNumFrames
100.0	100.0	6	51	mm	100.0	68	134
Frame#	Time	r_knee			r_shank_antsup			r_ankle			r_calc			r_5meta			r_toe			L_knee			L_shank_antsup			L_ankle			L_calc			L_5meta			L_toe			r_sh2			r_sh3			r_sh4			L_sh2			L_sh3			r_thigh1			r_thigh2			r_thigh3			r_thigh4			r_thigh5			L_thigh1			L_thigh2			L_thigh3			L_thigh4			r.ASIS			r.PSIS			L.ASIS			L.PSIS			C7			R_Shoulder			L_Shoulder			R_Sternum			L_Sternum			R_humerus			R_elbow_med			R_elbow_lat			R_forearm			R_wrist_radius			R_wrist_ulna			L_humerus			L_elbow_med			L_elbow_lat			L_forearm			L_wrist_radius			L_wrist_ulna			R_HJC			L_HJC			R_HJC_reg			L_HJC_reg			
		X1	Y1	Z1	X2	Y2	Z2	X3	Y3	Z3	X4	Y4	Z4	X5	Y5	Z5	X6	Y6	Z6	X7	Y7	Z7	X8	Y8	Z8	X9	Y9	Z9	X10	Y10	Z10	X11	Y11	Z11	X12	Y12	Z12	X13	Y13	Z13	X14	Y14	Z14	X15	Y15	Z15	X16	Y16	Z16	X17	Y17	Z17	X18	Y18	Z18	X19	Y19	Z19	X20	Y20	Z20	X21	Y21	Z21	X22	Y22	Z22	X23	Y23	Z23	X24	Y24	Z24	X25	Y25	Z25	X26	Y26	Z26	X27	Y27	Z27	X28	Y28	Z28	X29	Y29	Z29	X30	Y30	Z30	X31	Y31	Z31	X32	Y32	Z32	X33	Y33	Z33	X34	Y34	Z34	X35	Y35	Z35	X36	Y36	Z36	X37	Y37	Z37	X38	Y38	Z38	X39	Y39	Z39	X40	Y40	Z40	X41	Y41	Z41	X42	Y42	Z42	X43	Y43	Z43	X44	Y44	Z44	X45	Y45	Z45	X46	Y46	Z46	X47	Y47	Z47	X48	Y48	Z48	X49	Y49	Z49	X50	Y50	Z50	X51	Y51	Z51	

68	0.67000000	650.01981	458.17324	-12.33523	635.42780	376.27696	-28.10848	339.38617	205.39179	-52.49493	280.67147	251.06768	-82.29883	338.70953	77.04528	-53.07017	392.60189	64.85612	-107.91290	876.74793	497.12095	-277.57564	918.38973	405.10167	-267.90304	862.66731	97.18576	-259.24179	783.03110	63.76785	-236.63361	973.80720	42.31667	-262.61240	995.79731	66.54057	-196.83086	534.07926	320.37547	-10.42097	592.22028	442.10327	-2.05364	496.07568	383.78988	-8.61994	833.81510	410.95583	-299.81818	838.25959	288.95497	-303.99798	739.50160	767.14889	6.23818	728.18198	654.99091	4.17465	667.17379	638.07128	21.59421	625.21282	776.50344	7.45975	616.62419	660.63971	0.62218	830.59066	756.95523	-343.22682	875.51165	632.23095	-304.23991	723.14305	717.48161	-337.24931	773.93065	589.26588	-304.95664	767.96571	943.80626	-30.08567	593.36960	979.71601	-142.16800	817.92005	945.27415	-275.85796	602.54524	987.71345	-242.40620	577.62614	1389.57273	-204.89887	680.46001	1370.92242	-25.45540	667.08375	1366.43433	-378.04302	718.65818	1374.19662	-180.16061	727.40554	1373.51788	-220.82004	737.69155	1249.02044	34.45697	745.21627	1027.13498	13.37268	779.58622	1056.37804	70.05180	898.18104	981.30361	37.76368	986.29797	881.11303	14.23274	982.89742	870.55279	47.94807	685.77602	1251.49703	-440.27623	571.34203	1040.46374	-409.10917	624.92267	1046.70817	-466.14567	657.01326	938.23477	-428.06191	643.65824	778.65536	-419.10915	654.71506	784.46690	-452.68830	698.21563	862.99393	-70.59974	736.70054	869.66879	-273.33853	714.67512	861.38734	-76.05170	729.71509	874.49600	-240.36403	
69	0.68000000	675.05526	457.35624	-9.53886	659.65675	376.12805	-25.44311	358.81782	213.86931	-50.69646	303.33190	262.85198	-81.87545	350.75715	85.12683	-51.51833	405.45132	70.09530	-104.54227	884.47910	496.68522	-278.82225	924.81673	403.75698	-269.00948	863.34963	97.35918	-259.30891	783.13447	63.83459	-236.66567	973.98086	42.16491	-262.92417	996.02304	66.03607	-196.88779	556.76000	322.99321	-7.89426	618.15367	443.09264	0.70047	520.53109	387.39259	-6.73813	840.38592	410.97863	-301.15405	842.68909	288.92730	-304.84575	754.55865	768.46248	6.28341	746.68025	655.84891	5.62456	685.67395	637.65972	22.90043	640.02390	774.62363	6.20813	634.99284	658.77824	1.39506	842.11252	757.70958	-344.29916	885.28055	632.14538	-305.55759	733.70103	718.89182	-339.22530	783.08633	590.31302	-306.72217	779.60391	944.03143	-31.32562	605.14669	979.81398	-143.15320	830.05051	946.19983	-277.11359	614.69129	988.62444	-243.38769	590.09906	1390.51797	-206.32305	692.16251	1371.99326	-26.52236	680.29768	1367.35045	-379.02747	731.03607	1375.15358	-181.01094	740.01621	1374.50563	-221.63526	749.05558	1250.15302	33.66264	756.30990	1028.19872	13.00413	790.48661	1057.51398	69.78315	909.17982	982.34159	38.18562	997.60034	882.30147	15.21214	993.78153	871.59689	48.87272	699.90859	1252.51401	-441.33777	585.99814	1041.00085	-410.87130	639.95555	1047.49175	-467.57389	672.53049	939.27415	-429.01511	660.35213	779.65879	-419.72108	671.67336	785.52803	-453.21996	710.15242	863.16438	-72.08435	748.78743	870.61484	-274.76646	726.71800	860.93399	-78.20510	742.35313	875.36420	-242.42645	
70	0.69000000	700.22976	457.35015	-7.02893	684.27844	376.61246	-23.20443	379.23157	222.28800	-49.24403	326.26140	273.18877	-82.18898	366.12851	93.70893	-49.14488	421.42362	76.16288	-100.54543	891.46644	496.13110	-280.03522	930.67763	402.44688	-269.99658	863.95474	97.49458	-259.45266	783.24113	63.90092	-236.69169	974.14025	42.02003	-263.14385	996.19905	65.59193	-196.92326	579.96878	326.00464	-5.82637	644.33293	444.54321	3.07888	545.43191	391.21621	-5.02230	846.43448	410.93444	-302.48395	846.79716	288.85201	-305.66641	769.44532	770.16823	6.25657	765.18323	657.21712	6.83804	704.15528	637.69149	23.88960	654.81232	773.02621	5.07161	653.43865	657.39195	1.91993	853.01526	758.28930	-345.36314	894.35444	631.87810	-306.88290	743.69547	720.33290	-340.95157	791.63740	591.30565	-308.36566	790.99949	944.14093	-32.37987	616.67493	979.98896	-144.12364	841.91647	947.03820	-278.18403	626.63170	989.61588	-244.38823	602.39886	1391.51470	-207.65229	703.66727	1373.07426	-27.44135	693.40609	1368.20202	-379.94787	743.28721	1376.11521	-181.74077	752.48175	1375.47432	-222.31451	760.14076	1251.24571	33.04268	767.13412	1029.20151	12.77184	801.06300	1058.60400	69.66613	919.86167	983.29498	38.83632	1008.59507	883.40192	16.49163	1004.29850	872.53854	50.09007	714.03790	1253.45460	-442.28178	600.77193	1041.36162	-412.66495	655.07216	1048.20937	-469.03128	688.29055	940.27588	-430.04076	677.54054	780.63515	-420.38723	689.06816	786.56408	-453.80240	721.71492	863.30666	-73.49282	760.60300	871.53090	-276.09697	738.39795	860.45396	-80.21231	754.69193	876.20489	-244.32664	
71	0.70000000	725.36322	458.23653	-4.85005	709.15042	377.78925	-21.37717	400.65562	230.40387	-48.20056	349.31019	281.92207	-83.16117	384.92130	102.37712	-45.89197	440.59158	82.68960	-95.98374	897.81244	495.54099	-281.11162	935.99347	401.21547	-270.84509	864.48127	97.60346	-259.62284	783.35184	63.97283	-236.70739	974.27415	41.88526	-263.28685	996.32127	65.19205	-196.94296	603.54804	329.43293	-4.21359	670.54376	446.50947	5.01119	570.57539	395.22764	-3.51276	851.95407	410.87776	-303.73289	850.55627	288.76939	-306.41110	784.17119	772.33623	6.13252	783.63767	659.17149	7.80640	722.59657	638.25079	24.54257	669.57550	771.79994	3.97644	671.97770	656.50863	2.11442	863.33306	758.71728	-346.40424	902.78750	631.50328	-308.11528	753.20269	721.82682	-342.42557	799.64190	592.29290	-309.82368	802.20184	944.24283	-33.26353	628.01758	980.35100	-145.10811	853.54452	947.80341	-279.10180	638.37329	990.73326	-245.43004	614.53451	1392.59754	-208.88378	714.99226	1374.19298	-28.20716	706.40154	1369.01441	-380.81833	755.39915	1377.12021	-182.36470	764.79048	1376.46284	-222.88304	770.93183	1252.30885	32.61358	777.68231	1030.16538	12.63588	811.29484	1059.65672	69.68020	930.20894	984.17762	39.70771	1019.23088	884.40728	18.05635	1014.41201	873.37661	51.57426	728.16002	1254.32783	-443.08559	615.65131	1041.55845	-414.49880	670.27355	1048.86841	-470.50760	704.27524	941.25327	-431.11928	695.15144	781.59587	-421.09183	706.84340	787.58598	-454.42287	732.93579	863.52995	-74.80984	772.15738	872.44000	-277.32286	749.76142	860.07829	-81.99694	766.68901	877.04643	-246.01495	
72	0.71000000	750.31381	460.01179	-3.05809	734.16382	379.68098	-19.95021	423.12712	237.89829	-47.54666	372.48616	288.96491	-84.60742	406.87461	110.67302	-41.86521	462.71778	89.22082	-90.99572	903.60278	494.98331	-282.00044	940.78692	400.09682	-271.57267	864.93777	97.70827	-259.77297	783.46373	64.05593	-236.71064	974.37742	41.76572	-263.37448	996.39824	64.83707	-196.95521	627.43429	333.20208	-3.01195	696.59817	449.00080	6.46982	595.80561	399.32775	-2.24719	856.93430	410.84789	-304.83824	853.93080	288.71370	-307.04652	798.74932	774.99959	5.89347	801.99500	661.73397	8.52341	740.99002	639.36977	24.87375	684.30869	770.99365	2.85792	690.61525	656.07505	1.92032	873.13206	759.03642	-347.39090	910.63717	631.07923	-309.18901	762.30248	723.38872	-343.67547	807.16866	593.31044	-311.06451	813.26251	944.47694	-34.01755	639.23624	981.00070	-146.11984	864.96281	948.52796	-279.91675	649.92493	992.00949	-246.51486	626.51897	1393.80830	-210.01322	726.16649	1375.38038	-28.82827	719.27434	1369.82714	-381.64520	767.36146	1378.20184	-182.89510	776.92506	1377.51371	-223.37327	781.43047	1253.36458	32.37858	787.94535	1031.12810	12.56728	821.16570	1060.69166	69.80834	940.20126	985.00749	40.78880	1029.45266	885.31069	19.88811	1024.08322	874.11028	53.29539	742.24917	1255.16614	-443.73631	630.62883	1041.61451	-416.37509	685.57409	1049.49051	-471.98305	720.47023	942.23220	-432.21668	713.09516	782.55324	-421.81935	724.95369	788.61737	-455.06475	743.87488	863.95643	-76.01593	783.46623	873.37284	-278.43762	760.87073	859.95332	-83.50682	778.32442	877.92810	-247.46164	
73	0.72000000	774.98612	462.60202	-1.70696	759.23623	382.26630	-18.91807	446.64211	244.43775	-47.18452	395.89023	294.28428	-86.27393	431.46397	118.16111	-37.30729	487.33480	95.29841	-85.78266	908.89770	494.50587	-282.70708	945.08293	399.11114	-272.21334	865.34364	97.83394	-259.87901	783.57215	64.15440	-236.70027	974.45352	41.66384	-263.42710	996.44822	64.53292	-196.96644	651.64238	337.13977	-2.15802	722.34351	451.98073	7.46847	621.01000	403.37209	-1.25645	861.37910	410.86516	-305.76383	856.90136	288.70990	-307.55931	813.18670	778.15368	5.53159	820.21533	664.87597	8.97878	759.33784	641.02674	24.91653	699.00501	770.62273	1.68311	709.31885	655.99202	1.30666	882.49130	759.29520	-348.28459	917.96554	630.64445	-310.07854	771.05303	725.02433	-344.73238	814.28189	594.37568	-312.08778	824.23581	944.99404	-34.69929	650.38164	982.00830	-147.15122	876.19095	949.25701	-280.68196	661.29997	993.45832	-247.62250	638.36623	1395.18313	-211.03836	737.22352	1376.66513	-29.32678	732.01077	1370.68604	-382.42642	779.17063	1379.38217	-183.34069	788.86629	1378.66266	-223.81562	791.65836	1254.44372	32.32150	797.91114	1032.13513	12.54958	830.66550	1061.73486	70.03551	949.81934	985.80186	42.06737	1039.21672	886.10834	21.96611	1033.27799	874.73735	55.22648	756.25531	1256.02023	-444.23731	645.70037	1041.56483	-418.28413	700.99188	1050.10852	-473.42907	736.85727	943.24614	-433.28855	731.28078	783.52255	-422.55376	743.37206	789.69466	-455.70794	754.61460	864.70174	-77.08610	794.54996	874.36114	-279.43248	771.79870	860.21364	-84.72475	789.61299	878.89514	-248.65892	
